<?xml version="1.0" standalone="no"?>
<!DOCTYPE svg PUBLIC "-//W3C//DTD SVG 20010904//EN"
 "http://www.w3.org/TR/2001/REC-SVG-20010904/DTD/svg10.dtd">
<svg version="1.0" xmlns="http://www.w3.org/2000/svg"
 width="260.000000pt" height="260.000000pt" viewBox="0 0 260.000000 260.000000"
 preserveAspectRatio="xMidYMid meet">
<metadata>
Created by potrace 1.14, written by Peter Selinger 2001-2017
</metadata>
<g transform="translate(0.000000,260.000000) scale(0.100000,-0.100000)"
fill="#000000" stroke="none">
<path d="M806 1864 c-14 -14 -16 -81 -16 -593 0 -447 3 -581 13 -594 11 -16
31 -17 177 -15 l165 3 5 155 5 155 40 57 c22 32 45 58 52 58 6 0 68 -97 138
-215 l128 -215 191 2 c187 3 191 3 194 25 2 14 -61 126 -185 325 -103 167
-188 312 -187 323 0 11 80 127 177 258 97 131 177 244 177 251 0 32 -27 37
-186 34 l-159 -3 -181 -248 c-100 -137 -187 -254 -193 -260 -8 -8 -11 53 -11
239 0 181 -3 253 -12 262 -8 8 -59 12 -164 12 -125 0 -155 -3 -168 -16z"/>
</g>
</svg>
